<svg xmlns="http://www.w3.org/2000/svg" width="260" height="34" fill="none"><path d="M4.946 2.564C6.347.882 8.576.174 10.7.08c1.771-.092 3.52.511 4.97 1.506.49.274 1.093.718 1.67.419.548-.394.632-1.117.762-1.73l.746-.015c-.033 2.727-.092 5.456-.067 8.183l-.844.002c-.32-2.412-1.184-4.93-3.115-6.52C13.69 1.169 12.298.847 10.952.827 8.38.74 6.086 3.232 6.322 5.787c.132 1.817 1.364 3.325 2.742 4.41 1.749 1.423 3.921 2.16 5.767 3.437 2.11 1.418 4.108 3.245 5.041 5.673.518 1.269.46 2.667.311 4.005-1.14-.708-2.272-1.425-3.419-2.12-.711-.37-.967-1.187-1.507-1.736-2.095-2.323-4.884-3.833-7.554-5.383-2.15-1.277-3.824-3.488-4.13-6.008-.194-1.904.05-4.02 1.373-5.5zM84.21.236c2.802-.588 5.802-.064 8.25 1.414 3.36 1.994 5.688 5.418 6.853 9.102 1.617 5.18 1.161 11.042-1.486 15.806-1.503 2.694-3.77 5.035-6.608 6.3-2.856 1.302-6.26 1.344-9.141.095-2.919-1.238-5.245-3.619-6.78-6.36-2.21-3.929-2.881-8.632-2.17-13.061.615-3.717 2.275-7.33 5.006-9.963C79.804 1.93 81.916.72 84.21.236zM79.84 6.002c4.963 6.022 9.907 12.059 14.87 18.08a27.583 27.583 0 00.264-13.237c-.736-3.064-2.002-6.154-4.361-8.328-1.44-1.356-3.555-2.15-5.509-1.545-2.44.723-4.117 2.864-5.264 5.03zm-1.618 4.391a28.143 28.143 0 00-.219 12.09c.66 3.102 1.84 6.23 4.088 8.536 1.436 1.5 3.615 2.49 5.698 1.917 2.329-.603 3.95-2.565 5.175-4.526-4.869-6.042-9.835-12.005-14.742-18.017zM112.415.356c4.575-.002 9.151.005 13.726-.005 2.874-.055 5.718 1.47 7.28 3.886 1.806 2.772 1.923 6.665.09 9.45-1.371 2-3.7 3.09-6.019 3.548 1.346 1.192 2.102 2.847 3.038 4.348 1.446 2.397 2.816 4.838 4.235 7.253.579.9 1.082 1.877 1.851 2.634.841.768 2.042.803 3.12.8-.003.307-.003.616 0 .925-2.043-.015-4.088.04-6.128-.027a2.168 2.168 0 01-1.829-1.067c-2.421-4.145-4.809-8.31-7.265-12.433-.46-.758-1.05-1.5-1.869-1.884-.811-.272-1.682-.167-2.52-.214-.037 3.72-.005 7.442-.017 11.163.002.955.062 2.05.823 2.735.729.735 1.791.927 2.787.87v.86h-11.301c.012-.297.027-.591.047-.883.976.09 2.018-.124 2.735-.835.759-.688.823-1.78.836-2.734 0-8.228.005-16.453-.003-24.679.112-1.854-1.836-3.183-3.563-2.856-.022-.287-.04-.57-.054-.855zm7.693 3.978c.002 4.188.002 8.375 0 12.563 1.983-.068 4.053.276 5.948-.48 1.819-.645 3.31-2.138 3.917-3.977.798-2.465.666-5.217-.321-7.61-.757-1.775-2.25-3.42-4.225-3.741-1.085-.033-2.185-.077-3.259.067-1.259.481-2.115 1.832-2.06 3.178zM153.139.359c7.399.017 14.799-.045 22.198.03.017 2.734 0 5.466.007 8.197-.154-.005-.467-.02-.622-.027-.599-2.049-1.224-4.222-2.804-5.75-1.107-1.09-2.667-1.64-4.204-1.643-2.297.003-4.596 0-6.892.003.015 5.229-.033 10.46.022 15.688 1.914-.093 3.854.152 5.745-.252 1.082-.207 2.075-.937 2.533-1.95.488-1.049.622-2.208.863-3.33l.495.133c-.044 3.858-.005 7.72-.02 11.58l-.49-.06c-.276-1.308-.423-2.697-1.154-3.85-.702-1-1.918-1.491-3.103-1.553-1.632-.103-3.267-.038-4.899-.04.023 3.898-.01 7.794.015 11.692-.007.96.276 1.974 1.048 2.602.836.748 2.042.526 3.072.588 1.901-.07 3.902.265 5.698-.535 1.856-.768 3.023-2.58 3.65-4.417.416-1.466.59-2.989.848-4.49.197.003.593.003.789.003-.025 3.4.055 6.805-.04 10.205-7.576.032-15.149.01-22.725.01a93.924 93.924 0 01-.005-.918c.749-.02 1.565.05 2.231-.368.894-.549 1.386-1.628 1.349-2.66.007-8.066 0-16.132.002-24.197-.005-1.067-.039-2.296-.903-3.059-.706-.72-1.761-.78-2.704-.735-.003-.3-.003-.598 0-.897zM32.738.508H58.32c.012 3.235-.025 6.47.02 9.706-.356.012-.712.02-1.065.035-.043-2.697-.279-5.885-2.543-7.71-2.055-1.585-4.782-.979-7.178-1.101-.008 9.187 0 18.375-.005 27.565-.02.74.1 1.533.622 2.098 1.003 1.157 2.625 1.424 4.075 1.489l.013.605c-4.476-.002-8.952.008-13.426-.005.003-.152.01-.451.015-.603 1.453-.062 3.075-.322 4.098-1.468.535-.566.657-1.371.642-2.121-.013-9.203.01-18.403-.013-27.605-1.664.065-3.348-.127-4.998.145-1.602.264-3.01 1.358-3.702 2.824-.886 1.807-1.023 3.86-1.058 5.84-.363-.005-.721-.008-1.082-.01.005-3.228 0-6.456.003-9.684zM209.928 16.488c.665-5.327 1.344-10.653 2.016-15.98h15.122c-.525 1.289-.98 2.607-1.558 3.874-4.172-.013-8.342.07-12.515.092-.425 3.205-.858 6.405-1.278 9.61 2.612-.969 5.361-2.038 8.203-1.612 2.396.277 4.637 1.526 6.168 3.388 2.042 2.617 2.507 6.31 1.331 9.396-.804 2.37-2.784 4.103-4.889 5.32-2.819 1.592-6.066 2.175-9.246 2.51l.05-.723c2.294-.287 4.55-.99 6.541-2.181 1.898-1.184 3.386-3.143 3.662-5.404.217-2.101-.02-4.362-1.214-6.157-.98-1.503-2.602-2.495-4.327-2.901-2.684-.638-5.525-.237-8.066.768zM252.844.625c.67.003 1.341 0 2.016-.007.015 6.964.01 13.926.002 20.89.936-.003 1.953.14 2.814-.33.864-.495 1.441-1.388 1.675-2.345l.644.003c.007 1.533.005 3.066.003 4.598-1.71-.005-3.417.003-5.123-.005a491.375 491.375 0 00-.003 5.823c-.012.992.436 2.009 1.286 2.555.729.513 1.635.633 2.501.728l-.03.585c-3.849.008-7.695-.02-11.542.015-.01-.154-.032-.46-.045-.613 1.657.013 3.578-.94 3.737-2.766.105-2.104.015-4.215.045-6.322-4.463-.005-8.924 0-13.386-.002.035-.386-.079-.825.162-1.162 4.909-7.333 9.935-14.593 15.244-21.645zm-2.985 6.967c-3.23 4.641-6.457 9.285-9.684 13.928 3.563.003 7.126 0 10.689 0-.005-5.08.007-10.16-.008-15.24-.405.377-.686.86-.997 1.312zM.197 11.02c1.739 1.188 3.747 2.03 5.187 3.606 1.891 1.727 4.384 2.515 6.452 3.978 1.751 1.209 3.366 2.724 4.344 4.641 1.162 2.236.983 5.06-.289 7.208-1.107 1.852-3.137 2.986-5.222 3.35-2.573.474-5.41.13-7.566-1.445-.468-.294-1.068-.753-1.628-.417-.535.424-.632 1.15-.78 1.77-.175-.002-.52-.01-.695-.012.082-3.19.077-6.381.042-9.572h.874c.09 2.553.858 5.17 2.537 7.134 1.568 1.844 4.277 2.338 6.539 1.732 2.053-.595 3.18-2.742 3.428-4.74.23-1.618-.661-3.131-1.734-4.265-1.935-2.034-4.396-3.457-6.812-4.84-2.953-1.506-5.068-4.742-4.677-8.129z" fill="#333"/></svg>